BANGKOK ADRENALINE 2009 DVDRIP H264 PSP

Format                           : MPEG-4
Format profile                   : Base Media / Version 2
Codec ID                         : mp42
File size                        : 268 MiB
Duration                         : 1h 23mn
Overall bit rate                 : 449 Kbps
Encoded date                     : UTC 2010-03-27 13:28:37
Tagged date                      : UTC 2010-03-27 13:29:00
Writing application              : mp4creator 1.6.1d

Video
ID                               : 1
Format                           : AVC
Format/Info                      : Advanced Video Codec
Format profile                   : Baseline@L1.3
Format settings, CABAC           : No
Format settings, ReFrames        : 1 frame
Codec ID                         : avc1
Codec ID/Info                    : Advanced Video Coding
Duration                         : 1h 23mn
Bit rate mode                    : Variable
Bit rate                         : 382 Kbps
Width                            : 480 pixels
Height                           : 272 pixels
Display aspect ratio             : 16:9
Original display aspect ratio    : 16:9
Frame rate mode                  : Constant
Frame rate                       : 24.000 fps
Resolution                       : 24 bits
Colorimetry                      : 4:2:0
Scan type                        : Progressive
Bits/(Pixel*Frame)               : 0.122
Stream size                      : 228 MiB (85%)
Encoded date                     : UTC 2010-03-27 13:28:37
Tagged date                      : UTC 2010-03-27 13:28:54

Audio
ID                               : 2
Format                           : AAC
Format/Info                      : Advanced Audio Codec
Format version                   : Version 4
Format profile                   : LC
Format settings, SBR             : Yes
Format settings, PS              : No
Codec ID                         : 40
Duration                         : 1h 23mn
Bit rate mode                    : Variable
Bit rate                         : 66.15 Kbps
Maximum bit rate                 : 126 Kbps
Channel(s)                       : 2 channels
Channel positions                : L R
Sampling rate                    : 48.0 KHz
Resolution                       : 16 bits
Stream size                      : 38.9 MiB (15%)
Encoded date                     : UTC 2010-03-27 13:28:55
Tagged date                      : UTC 2010-03-27 13:29:00

Four backpackers arrive in Thailand to party and drink. A gambling game goes wrong and with their lives on the line they desperately decide to kidnap a billionaires daughter. Things go wrong when her 'father' doesn't play ball and prefers to use the kidnapping to further his own interests.  
http://www.imdb.com/title/tt1442486/

PLEASE SEED AND ENJOY THANKS

screen shots 
http://img185.imageshack.us/img185/4493/banadrh264vicemp4thumbs.jpg